HIERARCHY
ROOT Hips
{
 OFFSET 0.000000 0.000000 0.000000
 CHANNELS 6 Xposition Yposition Zposition Yrotation Xrotation Zrotation
 JOINT Chest
 {
  OFFSET 0.000000 9.585900 0.002600
  CHANNELS 3 Yrotation Xrotation Zrotation
  JOINT Chest2
  {
   OFFSET 0.000000 9.601200 -0.005300
   CHANNELS 3 Yrotation Xrotation Zrotation
   JOINT Chest3
   {
    OFFSET 0.000000 9.561800 0.000000
    CHANNELS 3 Yrotation Xrotation Zrotation
    JOINT Chest4
    {
     OFFSET 0.000000 9.552100 0.000000
     CHANNELS 3 Yrotation Xrotation Zrotation
     JOINT Neck
     {
      OFFSET 0.000000 14.453000 0.000000
      CHANNELS 3 Yrotation Xrotation Zrotation
      JOINT Head
      {
       OFFSET 0.000000 8.936500 -0.011300
       CHANNELS 3 Yrotation Xrotation Zrotation
       End Site
       {
        OFFSET 0.000000 17.073600 -0.006000
       }
      }
     }
     JOINT RightCollar
     {
      OFFSET -2.921100 9.558500 0.000000
      CHANNELS 3 Yrotation Xrotation Zrotation
      JOINT RightShoulder
      {
       OFFSET -13.519700 0.000000 0.000000
       CHANNELS 3 Yrotation Xrotation Zrotation
       JOINT RightElbow
       {
        OFFSET 0.000000 -29.696600 0.000000
        CHANNELS 3 Yrotation Xrotation Zrotation
        JOINT RightWrist
        {
         OFFSET 0.000000 -24.004700 0.000000
         CHANNELS 3 Yrotation Xrotation Zrotation
         End Site
         {
          OFFSET 0.000000 -17.728500 0.000000
         }
        }
       }
      }
     }
     JOINT LeftCollar
     {
      OFFSET 2.921100 9.558500 0.000000
      CHANNELS 3 Yrotation Xrotation Zrotation
      JOINT LeftShoulder
      {
       OFFSET 13.519700 0.000000 0.000000
       CHANNELS 3 Yrotation Xrotation Zrotation
       JOINT LeftElbow
       {
        OFFSET 0.000000 -29.696600 0.000000
        CHANNELS 3 Yrotation Xrotation Zrotation
        JOINT LeftWrist
        {
         OFFSET 0.000000 -24.004700 0.000000
         CHANNELS 3 Yrotation Xrotation Zrotation
         End Site
         {
          OFFSET 0.000000 -17.728500 0.000000
         }
        }
       }
      }
     }
    }
   }
  }
 }
 JOINT RightHip
 {
  OFFSET -7.771700 -0.012900 -0.001300
  CHANNELS 3 Yrotation Xrotation Zrotation
  JOINT RightKnee
  {
   OFFSET 0.000000 -40.869800 0.001200
   CHANNELS 3 Yrotation Xrotation Zrotation
   JOINT RightAnkle
   {
    OFFSET 0.000000 -39.717900 0.002100
    CHANNELS 3 Yrotation Xrotation Zrotation
    JOINT RightToe
    {
     OFFSET 0.000000 -4.965400 11.033500
     CHANNELS 3 Yrotation Xrotation Zrotation
     End Site
     {
      OFFSET 0.000000 -1.423100 5.872300
     }
    }
   }
  }
 }
 JOINT LeftHip
 {
  OFFSET 7.771700 -0.012900 -0.001300
  CHANNELS 3 Yrotation Xrotation Zrotation
  JOINT LeftKnee
  {
   OFFSET 0.000000 -40.869800 0.001200
   CHANNELS 3 Yrotation Xrotation Zrotation
   JOINT LeftAnkle
   {
    OFFSET 0.000000 -39.717900 0.002100
    CHANNELS 3 Yrotation Xrotation Zrotation
    JOINT LeftToe
    {
     OFFSET 0.000000 -4.965400 11.033500
     CHANNELS 3 Yrotation Xrotation Zrotation
     End Site
     {
      OFFSET 0.000000 -1.423100 5.872300
     }
    }
   }
  }
 }
}
MOTION
Frames: 13
Frame Time: 0.008333
0.000000 85.388000 0.000000 0.000000 -5.767877 0.000000 0.000000 11.653817 0.000000 0.000000 -5.885947 0.000000 0.000000 -0.000000 0.000000 0.000000 -0.000000 0.000000 0.000000 12.528835 0.000000 0.000000 0.711642 0.000000 0.000000 -0.000000 0.000000 0.000000 0.000000 -90.000000 0.000000 -2.309062 0.000000 0.000000 2.309062 0.000000 0.000000 -0.000000 0.000000 0.000000 -0.000000 90.000000 0.000000 -2.309062 0.000000 0.000000 2.309062 0.000000 0.000000 8.520406 0.000000 0.000000 1.905762 0.000000 -0.000000 -4.658285 0.000000 0.000000 -0.000000 0.000000 0.000000 8.520406 0.000000 0.000000 1.905762 0.000000 -0.000000 -4.658285 0.000000 0.000000 -0.000000 0.000000
-56.637197 43.913411 22.134496 173.496832 -42.509252 0.325073 1.323842 17.167928 1.105404 0.064111 1.826083 0.163756 0.173036 3.067402 0.223955 0.951163 15.177372 1.266960 -3.108889 15.922803 -4.271387 -2.377672 -8.977041 -3.822179 14.961656 -1.041448 -5.452860 -4.165756 -32.886748 -17.461429 155.215135 -50.978493 -155.353185 -2.023789 7.357245 -44.072897 -19.186751 -1.095421 -4.162296 13.623476 -31.428454 7.579389 -137.341373 -35.593471 150.555835 0.881754 2.871370 34.720268 -1.973238 -49.469005 10.072752 -143.343318 67.590652 -142.240111 -9.565264 -25.163211 6.999539 0.186072 -0.745389 0.141470 2.672169 -38.373336 -0.763684 174.940226 62.242138 175.733541 1.737895 -36.576963 -0.681757 0.009008 0.087621 -0.040930
-56.636401 43.909071 22.130920 173.501976 -42.590697 0.308857 1.276353 17.225043 1.138254 0.056175 1.838951 0.176337 0.195121 3.086486 0.200427 0.885628 15.244074 1.334794 -3.094978 15.830194 -4.364805 -2.440644 -9.074642 -3.858172 14.868195 -1.090450 -5.643190 -4.990705 -33.284528 -17.611690 157.753116 -51.557535 -157.160559 -2.484519 8.113598 -41.563739 -18.935700 -1.162344 -4.042924 13.650032 -31.474991 8.393265 -139.419714 -36.565741 151.066432 1.492068 2.578521 32.734421 -1.965392 -49.392950 10.070534 -143.362357 67.585305 -142.245669 -9.545283 -25.157771 6.988176 0.183443 -0.723640 0.125733 2.640850 -38.300117 -0.741613 174.919790 62.226843 175.709851 1.732542 -36.571606 -0.674190 0.010181 0.080092 -0.050050
-56.640036 43.899606 22.131803 173.519945 -42.634742 0.307161 1.206016 17.237088 1.158675 0.079112 1.867282 0.163333 0.173190 3.101433 0.209924 0.859188 15.300041 1.373640 -3.187833 15.718812 -4.427240 -2.412522 -9.139267 -3.960009 14.730057 -1.216174 -5.866650 -5.956679 -33.733834 -17.731131 160.914803 -52.214598 -159.317922 -3.027427 8.842405 -39.237582 -18.668373 -1.281725 -3.854021 13.745584 -31.563844 9.203747 -141.592506 -37.534906 151.687020 2.038170 2.553950 30.837384 -1.912039 -49.364837 10.008828 -143.422562 67.578435 -142.286166 -9.503664 -25.163663 6.994022 0.148741 -0.707146 0.106775 2.596951 -38.275532 -0.737756 174.908138 62.207327 175.677637 1.709106 -36.555618 -0.657866 0.009924 0.082053 -0.036327
-56.640173 43.890452 22.132831 173.513642 -42.677243 0.302097 1.200114 17.271387 1.180331 0.078614 1.881837 0.179052 0.153584 3.107553 0.219803 0.858294 15.342783 1.391273 -3.258515 15.640946 -4.493038 -2.436388 -9.209464 -4.033248 14.541141 -1.420686 -6.102729 -7.006847 -34.227849 -17.839922 164.538379 -52.867318 -161.740495 -3.605298 9.550448 -37.313514 -18.395188 -1.443870 -3.585182 13.828467 -31.708681 10.031868 -143.715935 -38.470191 152.395863 2.470280 2.786416 29.169507 -1.869769 -49.343139 9.990422 -143.505567 67.577455 -142.347550 -9.489348 -25.157921 6.997514 0.134009 -0.697851 0.093694 2.576970 -38.244304 -0.710205 174.893811 62.185277 175.659620 1.677453 -36.564104 -0.639314 0.020678 0.087331 -0.033785
-56.642817 43.882811 22.132919 173.520994 -42.715914 0.305451 1.180203 17.315728 1.214675 0.083812 1.902231 0.162332 0.142310 3.146082 0.260515 0.849009 15.353587 1.374432 -3.314912 15.565035 -4.567494 -2.480707 -9.286966 -4.101757 14.332681 -1.705052 -6.388365 -8.013001 -34.736257 -17.995038 168.254169 -53.437553 -164.263579 -4.175390 10.193276 -35.919294 -18.093119 -1.682873 -3.261431 13.905871 -31.915923 10.893451 -145.667433 -39.340914 153.164028 2.847605 3.207908 27.840763 -1.819305 -49.326376 9.952373 -143.621415 67.581122 -142.440539 -9.511936 -25.151185 7.007990 0.128816 -0.694744 0.084640 2.566585 -38.218738 -0.710052 174.888544 62.173377 175.644433 1.656483 -36.554447 -0.611582 0.023921 0.086243 -0.034494
-56.647422 43.879551 22.129659 173.513620 -42.765580 0.335752 1.176681 17.369936 1.195263 0.086814 1.946569 0.183812 0.141827 3.164012 0.265187 0.846701 15.391433 1.393263 -3.373728 15.482405 -4.641272 -2.527818 -9.371552 -4.169096 14.108307 -2.056928 -6.730438 -8.845389 -35.219254 -18.246412 171.545707 -53.881966 -166.619859 -4.769734 10.683474 -35.084979 -17.766857 -2.007991 -2.886910 14.016012 -32.180033 11.772048 -147.358556 -40.103552 153.953263 3.204028 3.755212 26.956971 -1.740760 -49.293432 9.885870 -143.797940 67.595846 -142.599254 -9.546074 -25.165250 7.032496 0.098113 -0.688168 0.065823 2.586708 -38.160680 -0.734432 174.878417 62.171696 175.633392 1.627742 -36.575941 -0.588226 0.036017 0.105330 -0.029170
-56.649998 43.874937 22.130187 173.520022 -42.768438 0.345842 1.167210 17.411178 1.206445 0.097134 1.976762 0.183346 0.142403 3.184333 0.269307 0.849155 15.434330 1.409319 -3.436733 15.392935 -4.707926 -2.581078 -9.463475 -4.227977 13.874174 -2.457790 -7.124706 -9.481643 -35.654755 -18.598631 174.066421 -54.180619 -168.582625 -5.380301 10.956782 -34.778038 -17.426923 -2.412646 -2.465695 14.167768 -32.488800 12.625303 -148.639348 -40.692921 154.664642 3.539097 4.362424 26.662399 -1.701736 -49.304723 9.851057 -143.852225 67.588659 -142.638480 -9.551914 -25.177552 7.034551 0.104542 -0.679681 0.064337 2.593365 -38.166063 -0.748006 174.853257 62.167010 175.607583 1.598082 -36.565327 -0.558695 0.039512 0.105605 -0.029892
-56.650888 43.873183 22.130093 173.522640 -42.757625 0.353049 1.177112 17.456523 1.222894 0.097188 2.004085 0.189538 0.143072 3.205374 0.272949 0.851661 15.478781 1.422552 -3.484339 15.267911 -4.755430 -2.660849 -9.531418 -4.284870 13.650422 -2.887014 -7.569652 -9.960480 -36.022913 -19.044930 175.790137 -54.331575 -170.112803 -5.933157 10.974019 -34.943585 -17.080124 -2.879475 -2.005174 14.343269 -32.836989 13.408663 -149.317879 -41.047300 155.170477 3.902224 4.962002 27.074459 -1.680064 -49.327039 9.833253 -143.895015 67.582414 -142.674232 -9.548649 -25.178939 7.035207 0.118426 -0.686855 0.061415 2.607736 -38.182885 -0.754823 174.836609 62.163708 175.594376 1.571365 -36.549320 -0.529545 0.041976 0.095703 -0.035936
-56.653439 43.875222 22.127975 173.528662 -42.740919 0.373267 1.191422 17.572868 1.255613 0.087981 1.962576 0.174130 0.143277 3.224542 0.276720 0.852324 15.519056 1.436711 -3.577011 15.185907 -4.818908 -2.730635 -9.646024 -4.322689 13.446067 -3.321893 -8.066153 -10.284223 -36.299177 -19.591092 176.780206 -54.339504 -171.247439 -6.403855 10.721631 -35.528031 -16.730887 -3.379649 -1.515816 14.512383 -33.232062 14.101929 -149.337570 -41.164594 155.437674 4.292298 5.514721 28.191806 -1.657701 -49.352923 9.808120 -143.942772 67.575722 -142.727889 -9.560832 -25.177295 7.042222 0.128023 -0.701604 0.061473 2.621275 -38.196101 -0.781979 174.818721 62.169114 175.575325 1.548176 -36.539898 -0.508412 0.046433 0.092356 -0.039699
-56.657881 43.883512 22.121041 173.474057 -42.741168 0.452604 1.237173 17.675711 1.265375 0.083918 1.951321 0.168277 0.136642 3.189488 0.256161 0.861664 15.598984 1.480695 -3.688607 15.111389 -4.879157 -2.815367 -9.753009 -4.360927 13.265333 -3.738146 -8.603955 -10.444314 -36.467518 -20.235072 177.124951 -54.187065 -172.034910 -6.808511 10.226370 -36.499825 -16.375254 -3.873099 -1.011561 14.668024 -33.690026 14.704256 -148.811204 -41.097340 155.540576 4.638983 5.990201 29.886304 -1.586734 -49.354591 9.766837 -143.950463 67.565045 -142.748988 -9.576336 -25.192713 7.029522 0.136799 -0.696606 0.083107 2.681485 -38.136817 -0.819143 174.803220 62.216653 175.558792 1.494326 -36.627473 -0.491037 0.076217 0.175808 -0.023056
-56.662846 43.887438 22.120683 173.508888 -42.670153 0.472115 1.205953 17.683333 1.263610 0.082233 1.956842 0.170929 0.138806 3.224892 0.272627 0.843751 15.542730 1.450957 -3.795887 15.083556 -4.902218 -2.924131 -9.831679 -4.398924 13.108040 -4.082640 -9.118604 -10.462388 -36.537855 -20.950042 176.947233 -53.868724 -172.536057 -7.130505 9.536451 -37.846093 -16.006895 -4.272139 -0.481995 14.836016 -34.219185 15.199402 -147.910916 -40.899648 155.579652 4.878869 6.355334 31.928856 -1.590052 -49.427396 9.736323 -143.941398 67.548713 -142.763022 -9.597160 -25.194218 7.038998 0.143714 -0.715247 0.086732 2.670447 -38.203041 -0.863986 174.800491 62.230172 175.538112 1.471176 -36.620332 -0.472845 0.084761 0.183684 -0.017127
-56.666515 43.896148 22.116704 173.549626 -42.613985 0.482686 1.163925 17.700649 1.264504 0.082593 1.923625 0.151410 0.132853 3.285218 0.311193 0.818388 15.552301 1.470485 -3.922686 14.988860 -4.977007 -3.043835 -9.897979 -4.436764 12.981913 -4.451957 -9.709556 -10.369223 -36.553030 -21.700738 176.286398 -53.431970 -172.773946 -7.315247 8.716571 -39.521846 -15.617865 -4.712676 0.016938 15.056182 -34.799794 15.556342 -146.793677 -40.596955 155.636323 4.978566 6.591025 34.037358 -1.594204 -49.478795 9.724100 -143.878933 67.526783 -142.717053 -9.665409 -25.140186 7.046974 0.217065 -0.784003 0.111903 2.642044 -38.251393 -0.895073 174.805121 62.243692 175.520280 1.442294 -36.615824 -0.466423 0.093333 0.189387 -0.000335
